#
# Object file
# Created by SpaceClaim
#

mtllib Brick_RibShape_Orange.mtl

# Brick_RibShape_Orange\Sólido
v 40 130 1800
v 50 200 1800
v 50 200 0
v 40 130 0
v 50 200 1800
v 150 200 1800
v 150 200 0
v 50 200 0
v 150 200 1800
v 160 130 1800
v 160 130 0
v 150 200 0
v 160 130 1800
v 200 130 1800
v 200 130 0
v 160 130 0
v 200 130 1800
v 200 -1.11022302462516E-13 1800
v 200 -1.11022302462516E-13 0
v 200 130 0
v 200 -1.11022302462516E-13 1800
v 160 -9.27127608316544E-14 1800
v 160 -9.27127608316544E-14 0
v 200 -1.11022302462516E-13 0
v 160 -9.27127608316544E-14 1800
v 150 70 1800
v 150 70 0
v 160 -9.27127608316544E-14 0
v 150 70 1800
v 50 70 1800
v 50 70 0
v 150 70 0
v 50 70 1800
v 40 0 1800
v 40 0 0
v 50 70 0
v 40 0 1800
v 0 0 1800
v 0 0 0
v 40 0 0
v 0 0 1800
v 1.53075794227797E-14 130 1800
v 1.53075794227797E-14 130 0
v 0 0 0
v 1.53075794227797E-14 130 1800
v 40 130 1800
v 40 130 0
v 1.53075794227797E-14 130 0
v 40 130 1800
v 1.53075794227797E-14 130 1800
v 0 0 1800
v 40 0 1800
v 50 70 1800
v 150 70 1800
v 160 -9.27127608316544E-14 1800
v 200 -1.11022302462516E-13 1800
v 200 130 1800
v 160 130 1800
v 150 200 1800
v 50 200 1800
v 0 0 0
v 1.53075794227797E-14 130 0
v 40 130 0
v 50 200 0
v 150 200 0
v 160 130 0
v 200 130 0
v 200 -1.11022302462516E-13 0
v 160 -9.27127608316544E-14 0
v 150 70 0
v 50 70 0
v 40 0 0
vn -0.989949493661166 0.14142135623731 0
vn -0.989949493661166 0.14142135623731 0
vn -0.989949493661166 0.14142135623731 0
vn -0.989949493661166 0.14142135623731 0
vn 5.55111512312578E-16 1 0
vn 5.55111512312578E-16 1 0
vn 5.55111512312578E-16 1 0
vn 5.55111512312578E-16 1 0
vn 0.989949493661167 0.141421356237309 0
vn 0.989949493661167 0.141421356237309 0
vn 0.989949493661167 0.141421356237309 0
vn 0.989949493661167 0.141421356237309 0
vn 6.93889390390723E-16 1 0
vn 6.93889390390723E-16 1 0
vn 6.93889390390723E-16 1 0
vn 6.93889390390723E-16 1 0
vn 1 -3.96508223080413E-16 0
vn 1 -3.96508223080413E-16 0
vn 1 -3.96508223080413E-16 0
vn 1 -3.96508223080413E-16 0
vn -4.57738540771532E-16 -1 0
vn -4.57738540771532E-16 -1 0
vn -4.57738540771532E-16 -1 0
vn -4.57738540771532E-16 -1 0
vn -0.989949493661167 -0.141421356237309 0
vn -0.989949493661167 -0.141421356237309 0
vn -0.989949493661167 -0.141421356237309 0
vn -0.989949493661167 -0.141421356237309 0
vn -1.38777878078145E-16 -1 0
vn -1.38777878078145E-16 -1 0
vn -1.38777878078145E-16 -1 0
vn -1.38777878078145E-16 -1 0
vn 0.989949493661167 -0.14142135623731 0
vn 0.989949493661167 -0.14142135623731 0
vn 0.989949493661167 -0.14142135623731 0
vn 0.989949493661167 -0.14142135623731 0
vn 0 -1 0
vn 0 -1 0
vn 0 -1 0
vn 0 -1 0
vn -1 6.12303176911189E-17 0
vn -1 6.12303176911189E-17 0
vn -1 6.12303176911189E-17 0
vn -1 6.12303176911189E-17 0
vn 6.93889390390723E-16 1 0
vn 6.93889390390723E-16 1 0
vn 6.93889390390723E-16 1 0
vn 6.93889390390723E-16 1 0
vn 0 0 1
vn 0 0 1
vn 0 0 1
vn 0 0 1
vn 0 0 1
vn 0 0 1
vn 0 0 1
vn 0 0 1
vn 0 0 1
vn 0 0 1
vn 0 0 1
vn 0 0 1
vn 0 0 -1
vn 0 0 -1
vn 0 0 -1
vn 0 0 -1
vn 0 0 -1
vn 0 0 -1
vn 0 0 -1
vn 0 0 -1
vn 0 0 -1
vn 0 0 -1
vn 0 0 -1
vn 0 0 -1
vt 0.0353553390593274 1.8
vt -0.0353553390593274 1.8
vt -0.0353553390593274 0
vt 0.0353553390593274 0
vt 0.05 1.8
vt -0.05 1.8
vt -0.05 0
vt 0.05 0
vt 0.0353553390593274 1.8
vt -0.0353553390593274 1.8
vt -0.0353553390593274 0
vt 0.0353553390593274 0
vt 0.02 1.8
vt -0.02 1.8
vt -0.02 0
vt 0.02 0
vt 0.065 1.8
vt -0.065 1.8
vt -0.065 0
vt 0.065 0
vt 0.02 1.8
vt -0.02 1.8
vt -0.02 0
vt 0.02 0
vt 0.0353553390593274 1.8
vt -0.0353553390593274 1.8
vt -0.0353553390593274 0
vt 0.0353553390593274 0
vt 0.05 1.8
vt -0.05 1.8
vt -0.05 0
vt 0.05 0
vt 0.0353553390593274 1.8
vt -0.0353553390593274 1.8
vt -0.0353553390593274 0
vt 0.0353553390593274 0
vt 0.02 1.8
vt -0.02 1.8
vt -0.02 0
vt 0.02 0
vt 0.065 1.8
vt -0.065 1.8
vt -0.065 0
vt 0.065 0
vt 0.02 1.8
vt -0.02 1.8
vt -0.02 0
vt 0.02 0
vt 0.04 0.13
vt 1.53075794227797E-17 0.13
vt 0 0
vt 0.04 0
vt 0.05 0.07
vt 0.15 0.07
vt 0.16 -9.27127608316544E-17
vt 0.2 -1.11022302462516E-16
vt 0.2 0.13
vt 0.16 0.13
vt 0.15 0.2
vt 0.05 0.2
vt 0 0
vt 1.53075794227797E-17 0.13
vt 0.04 0.13
vt 0.05 0.2
vt 0.15 0.2
vt 0.16 0.13
vt 0.2 0.13
vt 0.2 -1.11022302462516E-16
vt 0.16 -9.27127608316544E-17
vt 0.15 0.07
vt 0.05 0.07
vt 0.04 0

o Brick_RibShape_Orange\Sólido
g Brick_RibShape_Orange\Sólido
s off

usemtl mtl_0

# face 0
f 1/1/1 2/2/2 4/4/4
f 4/4/4 2/2/2 3/3/3

# face 1
f 5/5/5 6/6/6 8/8/8
f 8/8/8 6/6/6 7/7/7

# face 2
f 9/9/9 10/10/10 12/12/12
f 12/12/12 10/10/10 11/11/11

# face 3
f 13/13/13 14/14/14 16/16/16
f 16/16/16 14/14/14 15/15/15

# face 4
f 17/17/17 18/18/18 20/20/20
f 20/20/20 18/18/18 19/19/19

# face 5
f 21/21/21 22/22/22 24/24/24
f 24/24/24 22/22/22 23/23/23

# face 6
f 25/25/25 26/26/26 28/28/28
f 28/28/28 26/26/26 27/27/27

# face 7
f 29/29/29 30/30/30 32/32/32
f 32/32/32 30/30/30 31/31/31

# face 8
f 33/33/33 34/34/34 36/36/36
f 36/36/36 34/34/34 35/35/35

# face 9
f 37/37/37 38/38/38 40/40/40
f 40/40/40 38/38/38 39/39/39

# face 10
f 41/41/41 42/42/42 44/44/44
f 44/44/44 42/42/42 43/43/43

# face 11
f 45/45/45 46/46/46 48/48/48
f 48/48/48 46/46/46 47/47/47

# face 12
f 50/50/50 53/53/53 49/49/49
f 49/49/49 53/53/53 54/54/54
f 49/49/49 54/54/54 58/58/58
f 58/58/58 54/54/54 57/57/57
f 50/50/50 51/51/51 53/53/53
f 53/53/53 51/51/51 52/52/52
f 55/55/55 56/56/56 54/54/54
f 54/54/54 56/56/56 57/57/57
f 59/59/59 60/60/60 58/58/58
f 58/58/58 60/60/60 49/49/49

# face 13
f 72/72/72 61/61/61 71/71/71
f 71/71/71 61/61/61 62/62/62
f 71/71/71 62/62/62 63/63/63
f 64/64/64 65/65/65 63/63/63
f 63/63/63 65/65/65 66/66/66
f 63/63/63 66/66/66 71/71/71
f 71/71/71 66/66/66 70/70/70
f 66/66/66 67/67/67 70/70/70
f 70/70/70 67/67/67 68/68/68
f 70/70/70 68/68/68 69/69/69
